# xmcd
#
# Track frame offsets:
#	150
#	12630
#	25475
#	35400
#	45400
#	58620
#	68880
#	78870
#	88170
#	100525
#	111625
#	121910
#	134210
#	147160
#	159990
#	171950
#	185245
#	195495
#	206515
#	216570
#	226007
#	234975
#	246200
#	257560
#	269325
#	278675
#	291765
#	304170
#
# Disc length: 4229 seconds
#
# Revision: 1
# Processed by: cddbd v1.4PL0 Copyright (c) Steve Scherf et al.
# Submitted via: audiograbber 1.81.03
#
DISCID=9d10831c
DTITLE=Marvin and Johnny - Marvin and Johnny
DYEAR=1900
DGENRE=
TTITLE0=Cherry Pie
TTITLE1=Tick Tock
TTITLE2=Kiss Me Baby
TTITLE3=Sugar
TTITLE4=Dear One
TTITLE5=Honey Girl
TTITLE6=Little Honey
TTITLE7=Vip Vop
TTITLE8=Ko Ko Mo
TTITLE9=Sometimes I Wonder
TTITLE10=Baby Won't You Marry Me
TTITLE11=I Love You Yes I Do
TTITLE12=Butter Ball
TTITLE13=Sugar Mama
TTITLE14=Oh Me Oh My
TTITLE15=Sweet Dreams
TTITLE16=Will You Love Me
TTITLE17=I Wanna
TTITLE18=Let Me Know
TTITLE19=Ain't That Right
TTITLE20=Sweet Potato
TTITLE21=Tell Me Darling
TTITLE22=Have Mercy Miss Percy
TTITLE23=Have Mercy Miss Percy (Take 1)
TTITLE24=Yes I Do
TTITLE25=Forever
TTITLE26=Wonderful Wonderful One
TTITLE27=Sweet Dreams (LP Version)
EXTD=
EXTT0=
EXTT1=
EXTT2=
EXTT3=
EXTT4=
EXTT5=
EXTT6=
EXTT7=
EXTT8=
EXTT9=
EXTT10=
EXTT11=
EXTT12=
EXTT13=
EXTT14=
EXTT15=
EXTT16=
EXTT17=
EXTT18=
EXTT19=
EXTT20=
EXTT21=
EXTT22=
EXTT23=
EXTT24=
EXTT25=
EXTT26=
EXTT27=
PLAYORDER=
